<svg width="32" height="32" viewBox="0 0 32 32" fill="none" xmlns="http://www.w3.org/2000/svg">
<path d="M16 32C24.8366 32 32 24.8366 32 16C32 7.16344 24.8366 0 16 0C7.16344 0 0 7.16344 0 16C0 24.8366 7.16344 32 16 32Z" fill="#999999"/>
<mask id="mask0_1_543" style="mask-type:alpha" maskUnits="userSpaceOnUse" x="0" y="0" width="32" height="32">
<path d="M16 32C24.8366 32 32 24.8366 32 16C32 7.16344 24.8366 0 16 0C7.16344 0 0 7.16344 0 16C0 24.8366 7.16344 32 16 32Z" fill="#C8E7FA"/>
</mask>
<g mask="url(#mask0_1_543)">
<path d="M16 46.6667C22.6274 46.6667 28 41.2941 28 34.6667C28 28.0393 22.6274 22.6667 16 22.6667C9.37258 22.6667 4 28.0393 4 34.6667C4 41.2941 9.37258 46.6667 16 46.6667Z" fill="#E1E1E1"/>
</g>
<path d="M16.0002 18.4615C19.3989 18.4615 22.154 15.7063 22.154 12.3077C22.154 8.90898 19.3989 6.15381 16.0002 6.15381C12.6015 6.15381 9.84635 8.90898 9.84635 12.3077C9.84635 15.7063 12.6015 18.4615 16.0002 18.4615Z" fill="#E1E1E1"/>
</svg>
