<svg width="16" height="16" viewBox="0 0 16 16" fill="none" xmlns="http://www.w3.org/2000/svg">
<mask id="path-1-inside-1_1_560" fill="white">
<path d="M0 12.3077V13.5385C0 14.1913 0.25934 14.8175 0.720968 15.2791C1.1826 15.7407 1.8087 16 2.46154 16H13.5385C14.1913 16 14.8174 15.7407 15.279 15.2791C15.7407 14.8175 16 14.1913 16 13.5385V12.3077"/>
</mask>
<path d="M1.4 12.3077C1.4 11.5345 0.773199 10.9077 0 10.9077C-0.773199 10.9077 -1.4 11.5345 -1.4 12.3077H1.4ZM0 13.5385H-1.4H0ZM17.4 12.3077C17.4 11.5345 16.7732 10.9077 16 10.9077C15.2268 10.9077 14.6 11.5345 14.6 12.3077H17.4ZM-1.4 12.3077V13.5385H1.4V12.3077H-1.4ZM-1.4 13.5385C-1.4 14.5627 -0.99316 15.5448 -0.268982 16.269L1.71092 14.2891C1.51184 14.0901 1.4 13.82 1.4 13.5385H-1.4ZM-0.268982 16.269C0.455197 16.9932 1.43739 17.4 2.46154 17.4V14.6C2.18 14.6 1.91 14.4882 1.71092 14.2891L-0.268982 16.269ZM2.46154 17.4H13.5385V14.6H2.46154V17.4ZM13.5385 17.4C14.5626 17.4 15.5448 16.9932 16.269 16.269L14.2891 14.2891C14.09 14.4882 13.82 14.6 13.5385 14.6V17.4ZM16.269 16.269C16.9932 15.5449 17.4 14.5627 17.4 13.5385H14.6C14.6 13.82 14.4882 14.0901 14.2891 14.2891L16.269 16.269ZM17.4 13.5385V12.3077H14.6V13.5385H17.4Z" fill="#218BCB" mask="url(#path-1-inside-1_1_560)"/>
<path d="M4.30469 8.74658L7.997 12.2846L11.6893 8.74658" stroke="#218BCB" stroke-width="1.4" stroke-linecap="round" stroke-linejoin="round"/>
<path d="M8 11.3514L8 0.74585" stroke="#218BCB" stroke-width="1.4" stroke-linecap="round" stroke-linejoin="round"/>
</svg>
