<svg width="21" height="20" viewBox="0 0 21 20" fill="none" xmlns="http://www.w3.org/2000/svg">
<path d="M10.5 16.6667H18M3 16.6667H4.39545C4.8031 16.6667 5.00693 16.6667 5.19874 16.6206C5.3688 16.5798 5.53138 16.5124 5.6805 16.4211C5.84869 16.318 5.99282 16.1739 6.28107 15.8856L16.75 5.41666C17.4404 4.72631 17.4404 3.60702 16.75 2.91666C16.0597 2.22631 14.9404 2.22631 14.25 2.91666L3.78105 13.3856C3.4928 13.6739 3.34867 13.818 3.2456 13.9862C3.15422 14.1353 3.08688 14.2979 3.04605 14.4679C3 14.6598 3 14.8636 3 15.2712V16.6667Z" stroke="black" stroke-width="1.4" stroke-linecap="round" stroke-linejoin="round"/>
</svg>
