<svg width="17" height="16" viewBox="0 0 17 16" fill="none" xmlns="http://www.w3.org/2000/svg">
<path d="M5.83333 2H5.7C4.5799 2 4.01984 2 3.59202 2.21799C3.21569 2.40973 2.90973 2.71569 2.71799 3.09202C2.5 3.51984 2.5 4.0799 2.5 5.2V5.33333M5.83333 14H5.7C4.5799 14 4.01984 14 3.59202 13.782C3.21569 13.5903 2.90973 13.2843 2.71799 12.908C2.5 12.4802 2.5 11.9201 2.5 10.8V10.6667M14.5 5.33333V5.2C14.5 4.07989 14.5 3.51984 14.282 3.09202C14.0903 2.71569 13.7843 2.40973 13.408 2.21799C12.9802 2 12.4201 2 11.3 2H11.1667M14.5 10.6667V10.8C14.5 11.9201 14.5 12.4802 14.282 12.908C14.0903 13.2843 13.7843 13.5903 13.408 13.782C12.9802 14 12.4201 14 11.3 14H11.1667M5.5 5.33333V6.33333M11.5 5.33333V6.33333M7.83333 8.40007C8.36667 8.40007 8.83333 7.9334 8.83333 7.40007V5.33333M10.6335 10.1333C9.43346 11.3333 7.50013 11.3333 6.30013 10.1333" stroke="#444444" stroke-width="1.4" stroke-linecap="round" stroke-linejoin="round"/>
</svg>
