<svg width="17" height="4" viewBox="0 0 17 4" fill="none" xmlns="http://www.w3.org/2000/svg">
<path d="M8.49998 2.83334C8.96022 2.83334 9.33331 2.46024 9.33331 2C9.33331 1.53977 8.96022 1.16667 8.49998 1.16667C8.03974 1.16667 7.66665 1.53977 7.66665 2C7.66665 2.46024 8.03974 2.83334 8.49998 2.83334Z" fill="#444444"/>
<path d="M14.3333 2.83334C14.7935 2.83334 15.1666 2.46024 15.1666 2C15.1666 1.53977 14.7935 1.16667 14.3333 1.16667C13.8731 1.16667 13.5 1.53977 13.5 2C13.5 2.46024 13.8731 2.83334 14.3333 2.83334Z" fill="#444444"/>
<path d="M2.66665 2.83334C3.12688 2.83334 3.49998 2.46024 3.49998 2C3.49998 1.53977 3.12688 1.16667 2.66665 1.16667C2.20641 1.16667 1.83331 1.53977 1.83331 2C1.83331 2.46024 2.20641 2.83334 2.66665 2.83334Z" fill="#444444"/>
<path d="M8.49998 2.83334C8.96022 2.83334 9.33331 2.46024 9.33331 2C9.33331 1.53977 8.96022 1.16667 8.49998 1.16667C8.03974 1.16667 7.66665 1.53977 7.66665 2C7.66665 2.46024 8.03974 2.83334 8.49998 2.83334Z" stroke="#444444" stroke-width="2" stroke-linecap="round" stroke-linejoin="round"/>
<path d="M14.3333 2.83334C14.7935 2.83334 15.1666 2.46024 15.1666 2C15.1666 1.53977 14.7935 1.16667 14.3333 1.16667C13.8731 1.16667 13.5 1.53977 13.5 2C13.5 2.46024 13.8731 2.83334 14.3333 2.83334Z" stroke="#444444" stroke-width="2" stroke-linecap="round" stroke-linejoin="round"/>
<path d="M2.66665 2.83334C3.12688 2.83334 3.49998 2.46024 3.49998 2C3.49998 1.53977 3.12688 1.16667 2.66665 1.16667C2.20641 1.16667 1.83331 1.53977 1.83331 2C1.83331 2.46024 2.20641 2.83334 2.66665 2.83334Z" stroke="#444444" stroke-width="2" stroke-linecap="round" stroke-linejoin="round"/>
</svg>
