<svg width="19" height="20" viewBox="0 0 19 20" fill="none" xmlns="http://www.w3.org/2000/svg">
<path d="M3.93027 16.1987C4.4372 15.0044 5.62079 14.1667 7.00002 14.1667H12C13.3793 14.1667 14.5628 15.0044 15.0698 16.1987M12.8334 7.9167C12.8334 9.75765 11.341 11.25 9.50002 11.25C7.65907 11.25 6.16669 9.75765 6.16669 7.9167C6.16669 6.07575 7.65907 4.58337 9.50002 4.58337C11.341 4.58337 12.8334 6.07575 12.8334 7.9167ZM17.8334 10C17.8334 14.6024 14.1024 18.3334 9.50002 18.3334C4.89765 18.3334 1.16669 14.6024 1.16669 10C1.16669 5.39766 4.89765 1.6667 9.50002 1.6667C14.1024 1.6667 17.8334 5.39766 17.8334 10Z" stroke="#444444" stroke-width="1.4" stroke-linecap="round" stroke-linejoin="round"/>
</svg>
